<svg viewBox="0 0 500 499" xmlns="http://www.w3.org/2000/svg">
    <path
        d="M255 115c2.366 1.259 4.44 2.49 6.625 4l1.802 1.2c5.37 3.593 10.661 7.309 15.928 11.05 2.583 1.874 2.583 1.874 5.644 2.75l-.105-1.976c-.168-5.431-.147-9.425 3.106-14.023 5.572-4.19 11.646-3.487 18.292-3.446 2.136.008 4.269-.02 6.405-.052 1.37-.002 2.74-.001 4.11.002l3.745-.006c4.125.6 6.255 1.854 9.447 4.502 1.792 2.88 2.222 4.876 2.03 8.239l-.11 2.514-.13 2.7c-1.228 19.6-1.228 19.6 4.2 37.877 5.242 5.191 11.69 8.018 18.383 10.935 6.092 2.772 11.488 6.76 16.959 10.576a310.815 310.815 0 0 0 5.488 3.696c12.423 8.272 12.423 8.272 14.993 14.4l.187 2.063.313 3.125c-.696 8.632-4.954 15.21-9.688 22.25l-1.388 2.091c-2.904 4.18-5.517 7.337-10.237 9.534-2.507.148-2.507.148-5.204.095l-2.723-.042-2.073-.053-.01 3.642c-.038 11.33-.095 22.659-.174 33.989a4226.04 4226.04 0 0 0-.087 17.474c-.015 5.621-.05 11.243-.097 16.865a985.94 985.94 0 0 0-.024 6.432c-.002 3.005-.029 6.009-.062 9.013l.015 2.683c-.109 6.463-1.805 9.942-6.266 14.735-3.541 1.802-7.113 1.746-11.006 1.845l-2.867.1c-16.046.48-32.112.388-48.164.39-2.903 0-5.806.003-8.71.005-10.148.01-20.297.014-30.446.013-9.434 0-18.87.01-28.303.026-8.14.013-16.278.018-24.417.017-4.845 0-9.69.003-14.535.014-4.542.01-9.083.01-13.625.002-1.663 0-3.326.001-4.989.008-2.273.007-4.547.003-6.82-.005l-3.85.002c-4.393-.307-8.825-.815-12.305-3.687-4.035-5.564-4.42-8.918-4.464-15.694l-.03-2.868c-.031-3.138-.056-6.276-.08-9.415l-.064-6.515c-.055-5.725-.104-11.45-.152-17.173-.05-5.838-.106-11.676-.162-17.514a39137.1 39137.1 0 0 1-.306-34.383l-2.076.047-2.726.037-2.701.047c-3.955-.208-5.617-1.434-8.497-4.131-2.647-3.35-4.991-6.856-7.313-10.438l-1.916-2.854c-4.47-6.788-6.826-12.377-5.771-20.709 2.215-7.42 7.036-10.672 13.39-14.582 1.906-1.22 3.81-2.44 5.714-3.662l2.963-1.878c4.656-2.98 9.221-6.092 13.793-9.202l5.441-3.678c2.734-1.848 5.467-3.697 8.199-5.547 11.184-7.57 22.422-15.036 33.78-22.34 3.642-2.352 7.246-4.759 10.845-7.173l4.527-3.028a4512.079 4512.079 0 0 1 13.857-9.247 969.533 969.533 0 0 0 9.51-6.401l2.019-1.369a575.541 575.541 0 0 0 3.777-2.583c6.258-4.23 11.459-7.393 19.185-5.31zm-13.188 21.188-2.114 1.359c-6.01 3.902-11.858 8.03-17.687 12.196a272.999 272.999 0 0 1-14.211 9.488c-3.45 2.18-6.846 4.438-10.238 6.707l-1.946 1.3-3.82 2.558c-2.595 1.74-5.196 3.472-7.796 5.204l-2.919 1.945c-21.527 14.352-21.527 14.352-23.26 15.506-1.178.786-2.355 1.573-3.532 2.361a1376.486 1376.486 0 0 1-12.535 8.27l-6.63 4.356-3.264 2.117-3.04 2.004-2.741 1.79c-2.352 1.56-2.352 1.56-3.08 4.651 1.061 2.438 1.061 2.438 2.688 4.938l1.575 2.59c1.719 2.445 3.563 4.43 5.738 6.472 4.349-2.416 8.569-4.973 12.762-7.652.983-.628 1.966-1.256 2.98-1.902L151 221l.013 1.809c.103 14.504.212 29.009.326 43.513.056 7.014.11 14.028.158 21.042.048 6.762.1 13.525.156 20.288.02 2.586.04 5.173.056 7.76.024 3.608.054 7.217.086 10.825l.017 3.276.03 2.962.02 2.59c-.074 1.94-.074 1.94 1.138 2.934 2.502.1 4.976.135 7.479.127l2.4.005c2.676.004 5.352 0 8.027-.002l5.73.005c5.202.005 10.405.003 15.607 0 5.431-.003 10.863 0 16.294.001 9.123.002 18.246 0 27.369-.005 10.564-.006 21.128-.004 31.69.001 9.053.005 18.105.006 27.158.003 5.414-.002 10.828-.002 16.243.002 5.089.002 10.178 0 15.266-.005 1.873-.002 3.747-.001 5.62.001 2.546.003 5.092 0 7.638-.006l2.277.007c3.387.288 3.387.288 6.202-1.134.107-1.505.146-3.015.158-4.524l.03-2.962c.005-1.08.01-2.162.017-3.276l.03-3.429c.032-3.76.056-7.52.081-11.282l.063-7.798c.05-6.155.095-12.31.138-18.466.05-7.006.104-14.012.16-21.018.114-14.415.22-28.83.323-43.246 1.597.95 3.193 1.9 4.789 2.852l2.693 1.604a99.04 99.04 0 0 1 5.893 3.92c2.677 1.975 2.677 1.975 6.625 1.624 2.302-2.513 2.302-2.513 4.312-5.75l2.176-3.234c1.707-2.754 1.707-2.754 1.349-5.016-1.096-2.617-2.37-3.437-4.724-5.005l-2.5-1.69-2.73-1.793-2.81-1.883a1980.975 1980.975 0 0 0-8.948-5.941 6852.551 6852.551 0 0 1-5.922-3.96c-3.67-2.45-7.343-4.898-11.023-7.334l-2.54-1.712c-2.664-1.747-2.664-1.747-5.693-3.29-7.395-4.044-7.395-4.044-8.922-7.77-.379-2.836-.396-5.474-.283-8.333l-.013-3.056c-.003-3.206.07-6.404.146-9.608.023-3.224.03-6.447.038-9.671.01-2.002.034-4.005.07-6.007l.047-2.722.054-2.405c.12-1.84.12-1.84-1.084-2.82-1.696-.1-3.396-.13-5.094-.133l-3.121-.003-3.286.011-3.285-.011-3.12.003-2.886.004c-2.183-.118-2.183-.118-3.209 1.13a133.126 133.126 0 0 0-.097 6.222l.01 3.818.025 4.022.014 4.033c.011 3.302.028 6.603.048 9.904-5.098-2.757-10.025-5.567-14.75-8.937-6.056-4.26-12.17-8.43-18.312-12.562l-2.778-1.89-2.632-1.766-2.352-1.588c-5.622-3.246-8.234-1.46-13.363 1.931z"
        fill="#16a34a" />
    <path
        d="M140 339c2 1 2 1 3.375 3.375 1.759 2.841 2.732 3.988 5.625 5.625 2.769.289 5.31.405 8.078.381l2.487.014c2.754.012 5.507.003 8.26-.007 1.974.004 3.946.01 5.92.016 5.36.014 10.722.008 16.083-.001 5.607-.008 11.214 0 16.821.004 9.418.006 18.836-.002 28.254-.016 10.892-.016 21.783-.01 32.675.006 9.346.013 18.692.015 28.038.007 5.584-.004 11.168-.005 16.753.005 5.25.009 10.501.003 15.752-.015 1.928-.004 3.856-.003 5.785.004 2.63.008 5.259-.002 7.89-.017l2.317.02c4.497-.05 7.268-.716 10.888-3.401l2.312-1.687 1.688-1.313c.347 2.92.532 5.132-1.043 7.7-1.804 2.183-3.402 4.022-5.957 5.3-2.87.249-5.711.426-8.587.552l-2.894.127c-16.076.616-32.176.486-48.26.488-2.904.001-5.807.003-8.71.006-10.149.009-20.298.013-30.447.012-9.434 0-18.869.01-28.303.026-8.139.013-16.278.019-24.417.018-4.845 0-9.69.002-14.535.013-4.542.01-9.083.01-13.625.003-1.663-.002-3.326 0-4.988.007-2.274.008-4.547.003-6.82-.005l-3.85.002c-4.394-.307-8.825-.814-12.306-3.686-3.66-5.048-4.374-7.297-4.258-13.562z"
        fill="#86efac" />
    <path
        d="M254 127c3.397 1.793 6.574 3.89 9.773 6.012l2.8 1.836c1.945 1.281 3.886 2.568 5.824 3.86a914.348 914.348 0 0 0 8.966 5.86c1.888 1.25 3.775 2.502 5.66 3.756l2.727 1.753c2.267 1.537 4.33 2.97 6.25 4.923.561 3.417.561 3.417 0 6-4.035-.617-6.967-2.796-10.25-5.063l-3.973-2.687-2.25-1.531a3487.333 3487.333 0 0 0-15.214-10.281l-3.187-2.167-3.012-2.025-2.695-1.822c-2.254-1.327-3.828-2.159-6.419-2.424a70.12 70.12 0 0 0-7.187 4.188l-2.114 1.358c-6.01 3.903-11.858 8.031-17.687 12.196a272.999 272.999 0 0 1-14.211 9.488c-3.451 2.18-6.846 4.438-10.238 6.707l-1.946 1.302-3.82 2.557c-2.596 1.739-5.196 3.471-7.797 5.204l-2.918 1.945-21.527 14.352-1.732 1.156c-1.179.785-2.359 1.569-3.54 2.35a869.757 869.757 0 0 0-12.423 8.42l-6.547 4.465-3.189 2.219-3.01 2.042-2.694 1.855c-2.419 1.196-2.419 1.196-4.739.887l-1.68-.69c.3-3.143.557-4.6 2.94-6.755l2.556-1.593 2.856-1.816 3.085-1.9c2.114-1.337 4.228-2.676 6.34-4.015l3.195-2.006c4.224-2.673 8.38-5.44 12.528-8.228l4.352-2.91 2.094-1.403c3.307-2.213 6.618-4.419 9.93-6.625l3.679-2.453 34.102-22.734 1.824-1.216 3.674-2.449a7436.88 7436.88 0 0 0 12.75-8.518c2.3-1.536 4.603-3.064 6.908-4.59a356.617 356.617 0 0 0 7.563-5.141l2.875-1.961 2.39-1.676c3.344-1.434 4.815-.973 8.36-.011z"
        fill="#86efac" />
    <path
        d="M322 174c4.156 1.483 7.71 3.586 11.375 6l1.847 1.202c6.268 4.09 12.492 8.249 18.71 12.415a2549.06 2549.06 0 0 0 6.771 4.508l2.417 1.606c1.542 1.024 3.084 2.048 4.627 3.07A417.68 417.68 0 0 1 381 212l-2 4c-3.294-.634-5.564-1.831-8.35-3.68l-2.58-1.701c-.914-.61-1.828-1.22-2.769-1.85l-2.878-1.903c-3.04-2.013-6.075-4.033-9.11-6.054l-6.076-4.025c-9.486-6.285-9.486-6.285-13.754-9.145a244.299 244.299 0 0 0-5.109-3.287l-2.487-1.575-2.228-1.38c-1.66-1.4-1.66-1.4-2.222-4.775L322 174z"
        fill="#86efac" />
    <path
        d="M390 218h1c-.416 6.13-2.402 9.978-5.75 15.062l-1.305 2.064c-7.994 12.46-7.994 12.46-12.945 13.874-4.311.403-7.273.484-11-2-.187-3.125-.187-3.125 0-6l2.45.14 3.238.11 3.199.14c3.922-.492 5.331-1.618 8.113-4.39 2.113-2.767 2.113-2.767 4-5.813l2.067-3.191L385 225a183.534 183.534 0 0 1 5-7z"
        fill="#86efac" />
    <path
        d="M109 218c3.92 3.549 6.65 7.696 9.563 12.062.956 1.43 1.916 2.859 2.878 4.285l1.272 1.907c1.324 1.796 2.576 3.31 4.287 4.746 3.201.363 3.201.363 6.688.187l3.574-.082 2.738-.106v6c-3.668 2.348-6.717 2.444-11 2-6.378-3.17-9.546-8.54-13.375-14.375l-1.941-2.828-1.832-2.757-1.662-2.494c-1.414-3.025-1.409-5.245-1.19-8.546z"
        fill="#86efac" />
    <path
        d="m302.09 124.87 3.121-.004 3.285.012 3.285-.012 3.122.004 2.884.003c2.21.13 2.21.13 3.21 1.13v6h-25c0-7.126 0-7.126 6.093-7.133z"
        fill="#86efac" />
</svg>